<svg width="819.8" height="82.257" viewBox="0 0 819.8 82.257" xmlns="http://www.w3.org/2000/svg"><g id="svgGroup" stroke-linecap="round" fill-rule="evenodd" font-size="9pt" stroke="#000" stroke-width="mm" fill="#000000" style="stroke:#000;stroke-width:mm;fill:#000000"><path d="M 649.5 64.9 L 648.6 63.8 Q 647.369 62.569 646.789 61.753 A 4.915 4.915 0 0 1 646.5 61.3 A 3.337 3.337 0 0 1 646.331 60.887 Q 646.176 60.432 646.054 59.765 A 14.419 14.419 0 0 1 646 59.45 Q 645.829 58.38 645.951 57.859 A 1.113 1.113 0 0 1 646 57.7 Q 646.36 56.89 647.085 56.039 A 10.342 10.342 0 0 1 647.25 55.85 A 5.645 5.645 0 0 1 647.691 55.405 Q 648.17 54.977 648.596 54.846 A 1.336 1.336 0 0 1 648.8 54.8 L 648.9 54.8 L 650.3 55.2 Q 652.1 56 654.7 57.6 Q 655.3 58 656.4 58.9 Q 656.977 59.56 657.384 59.913 A 3.982 3.982 0 0 0 657.55 60.05 A 5.645 5.645 0 0 0 658.104 60.428 A 7.217 7.217 0 0 0 658.6 60.7 L 659.7 61.4 A 20.527 20.527 0 0 0 662.737 58.462 A 18.144 18.144 0 0 0 663.7 57.2 A 36.503 36.503 0 0 0 667.961 49.153 A 33.687 33.687 0 0 0 668.5 47.6 Q 670.1 42.6 670.1 38.8 A 13.445 13.445 0 0 0 669.992 37.131 A 15.684 15.684 0 0 0 669.9 36.5 A 58.168 58.168 0 0 0 666.743 26.464 Q 664.825 21.803 662.02 16.904 A 99.996 99.996 0 0 0 661.2 15.5 Q 660.9 15.1 658.6 12.9 A 68.577 68.577 0 0 1 657.879 12.274 Q 656.657 11.197 656.368 10.807 A 0.755 0.755 0 0 1 656.3 10.7 L 657.1 10.5 A 9.006 9.006 0 0 1 659.557 10.827 A 8.064 8.064 0 0 1 660.6 11.2 Q 664.446 13.172 667.611 17.478 A 29.755 29.755 0 0 1 667.7 17.6 A 2.079 2.079 0 0 0 667.814 17.792 Q 668.118 18.26 669.037 19.399 A 81.071 81.071 0 0 0 669.2 19.6 L 672.5 24.2 A 30.804 30.804 0 0 1 673.871 26.376 A 26.235 26.235 0 0 1 674.4 27.35 Q 675.2 28.9 675.6 29.7 A 186.646 186.646 0 0 1 676.015 30.605 Q 676.837 32.413 677 32.9 A 15.322 15.322 0 0 1 677.39 34.521 Q 677.723 36.27 677.931 38.866 A 87.811 87.811 0 0 1 678.1 41.5 L 678.3 45.6 Q 678.3 47 677.9 48.3 Q 677.5 49.6 677.3 50.2 A 26.129 26.129 0 0 1 676.437 52.361 Q 675.37 54.746 673.561 57.811 A 88.901 88.901 0 0 1 673.3 58.25 Q 670.4 63.1 666.8 66.9 Q 666.5 67.3 666.1 67.6 A 8.239 8.239 0 0 0 666.312 67.87 Q 666.572 68.188 666.95 68.6 Q 667.493 69.193 668.281 70.079 A 219.566 219.566 0 0 1 668.3 70.1 A 30.893 30.893 0 0 0 669.122 71.065 Q 669.518 71.511 669.893 71.893 A 18.564 18.564 0 0 0 670 72 A 38.065 38.065 0 0 1 670.526 72.538 Q 671.339 73.385 672.717 74.887 A 333.875 333.875 0 0 1 673.05 75.25 Q 675.19 77.59 676.191 78.789 A 36.913 36.913 0 0 1 676.2 78.8 L 676.9 79.6 L 677.8 80.6 Q 678.2 81.2 678.2 81.3 A 0.18 0.18 0 0 1 678.156 81.405 Q 678.017 81.587 677.441 81.879 A 8.61 8.61 0 0 1 677.4 81.9 A 3.342 3.342 0 0 1 677.091 82.073 Q 676.5 82.36 676.1 82.2 A 1.694 1.694 0 0 1 675.721 82.142 Q 674.791 81.916 672.4 80.8 A 3.976 3.976 0 0 0 671.989 80.602 Q 671.184 80.26 669.5 79.8 Q 667.4 79.4 666.2 78.7 A 2.295 2.295 0 0 1 665.738 78.481 Q 665.526 78.353 665.303 78.168 A 5.716 5.716 0 0 1 664.9 77.8 A 3.306 3.306 0 0 0 664.652 77.578 Q 664.527 77.476 664.377 77.369 A 7.711 7.711 0 0 0 664.05 77.15 Q 663.5 76.8 662.9 76.6 L 662.1 76.4 Q 661.4 75.9 658.1 73.1 A 41.217 41.217 0 0 1 650.694 75.781 A 47.993 47.993 0 0 1 648 76.4 A 34.595 34.595 0 0 1 642.443 77.067 A 39.876 39.876 0 0 1 640.8 77.1 A 35.918 35.918 0 0 1 626.854 74.22 A 42.57 42.57 0 0 1 624.6 73.2 Q 619.3 70.6 614.8 66.35 A 38.973 38.973 0 0 1 610.476 61.567 A 31.053 31.053 0 0 1 607.8 57.4 A 39.584 39.584 0 0 1 604.857 49.988 A 30.391 30.391 0 0 1 603.7 41.8 Q 603.7 38.5 604.7 35.2 A 55.875 55.875 0 0 1 607.751 27.362 A 65.418 65.418 0 0 1 609.2 24.5 A 107.404 107.404 0 0 1 610.594 21.981 Q 612.125 19.305 613.361 17.58 A 23.188 23.188 0 0 1 614.1 16.6 L 617.1 13.1 A 50.803 50.803 0 0 1 623.727 7.266 A 58.357 58.357 0 0 1 625.65 5.9 Q 629.985 2.951 633.88 1.519 A 26 26 0 0 1 634.8 1.2 A 21.538 21.538 0 0 1 638.237 0.38 Q 639.958 0.107 641.924 0.03 A 40.414 40.414 0 0 1 643.5 0 Q 648.8 0 651.5 1.3 A 5.797 5.797 0 0 1 652.261 1.767 Q 653.22 2.449 654.45 3.75 Q 655.872 5.253 656.205 5.997 A 1.165 1.165 0 0 1 656.3 6.3 A 2.596 2.596 0 0 1 655.266 8.417 A 4.28 4.28 0 0 1 654.5 8.9 Q 653.939 9.221 653.571 9.284 A 1.006 1.006 0 0 1 653.4 9.3 L 652.4 9 L 651 8.7 Q 649.316 8.547 648.276 8.511 A 16.835 16.835 0 0 0 647.7 8.5 A 28.088 28.088 0 0 0 642.345 8.998 A 25.584 25.584 0 0 0 641.4 9.2 Q 639.103 9.736 637.392 10.389 A 18.506 18.506 0 0 0 636.4 10.8 Q 635.2 11.3 633.7 12.4 Q 632.1 13.6 631.1 14.2 L 630.8 14.4 Q 621.1 21.8 615.7 32.5 A 19.922 19.922 0 0 0 613.748 39.262 A 24.724 24.724 0 0 0 613.6 42 Q 613.6 46.1 615 50.1 Q 616.4 54.1 619.9 57.9 Q 623.4 61.7 628.1 64.3 Q 634.4 67.7 641.5 67.7 Q 644.5 67.7 647.7 66.9 A 22.509 22.509 0 0 0 648.936 66.618 Q 649.495 66.473 649.983 66.311 A 12.627 12.627 0 0 0 650.3 66.2 Q 649.71 65.315 649.507 64.914 A 3.088 3.088 0 0 1 649.5 64.9 Z M 156.1 55.5 L 156.8 53.9 A 4.263 4.263 0 0 0 156.977 53.492 Q 157.058 53.276 157.129 53.027 A 7.235 7.235 0 0 0 157.15 52.95 Q 157.3 52.4 157.6 51.9 L 158.2 51 A 0.219 0.219 0 0 1 158.25 50.962 Q 158.436 50.86 158.7 51.3 A 4.016 4.016 0 0 1 159.108 52.11 Q 159.378 52.825 159.5 53.8 A 15.994 15.994 0 0 1 159.522 54.641 A 15.369 15.369 0 0 1 158.1 61.1 A 37.821 37.821 0 0 1 154.998 66.74 Q 152.93 69.805 150.433 71.963 A 21.834 21.834 0 0 1 149 73.1 A 5.051 5.051 0 0 1 148.288 73.576 Q 147.063 74.277 144.447 75.264 A 87.253 87.253 0 0 1 142.7 75.9 A 5.133 5.133 0 0 1 142.585 75.955 Q 142.247 76.113 141.15 76.6 Q 140.084 77.074 139.423 77.236 A 3.367 3.367 0 0 1 139.1 77.3 A 7.208 7.208 0 0 1 138.628 77.399 Q 137.822 77.542 136.343 77.686 A 69.948 69.948 0 0 1 136.2 77.7 Q 134.464 77.858 131.607 77.642 A 66.581 66.581 0 0 1 130 77.5 A 39.826 39.826 0 0 1 123.306 76.264 A 36.372 36.372 0 0 1 122.4 76 A 17.678 17.678 0 0 1 118.19 74.15 A 23.055 23.055 0 0 1 115.55 72.3 Q 112.2 69.6 109.9 65.7 A 23.788 23.788 0 0 1 106.833 56.504 A 30.267 30.267 0 0 1 106.6 52.7 A 38.97 38.97 0 0 1 106.769 49.138 A 44.689 44.689 0 0 1 106.9 47.9 A 34.192 34.192 0 0 1 108.002 42.904 A 44.715 44.715 0 0 1 109.45 38.8 A 33.087 33.087 0 0 1 111.465 34.652 A 24.456 24.456 0 0 1 114.2 30.8 Q 117.6 26.8 121.95 24.35 A 22.179 22.179 0 0 1 125.135 22.857 Q 127.725 21.9 130.1 21.9 Q 131.2 21.9 132.3 22.2 Q 137.5 23.3 142.05 25.85 Q 145.734 27.915 148.074 30.208 A 17.869 17.869 0 0 1 149.1 31.3 A 69.696 69.696 0 0 1 150.62 33.199 Q 151.283 34.061 151.828 34.836 A 30.197 30.197 0 0 1 152.8 36.3 A 23.054 23.054 0 0 1 153.268 37.2 Q 154 38.697 154 39.4 A 11.186 11.186 0 0 1 150.439 47.467 A 14.202 14.202 0 0 1 150.3 47.6 Q 147.095 50.628 141.669 52.069 A 31.748 31.748 0 0 1 140.3 52.4 Q 138.83 52.645 134.757 52.69 A 178.2 178.2 0 0 1 132.8 52.7 A 162.957 162.957 0 0 1 130.878 52.69 Q 127.969 52.655 126.56 52.508 A 8.481 8.481 0 0 1 125.8 52.4 Q 124.716 52.219 123.02 51.427 A 25.429 25.429 0 0 1 122.65 51.25 A 27.676 27.676 0 0 1 121.973 50.91 Q 120.625 50.206 120.3 49.8 Q 119.9 49.3 119.9 48.5 A 3.318 3.318 0 0 1 120.384 46.784 A 4.077 4.077 0 0 1 120.5 46.6 A 6.084 6.084 0 0 1 120.694 46.325 Q 120.903 46.047 121.081 45.892 A 1.194 1.194 0 0 1 121.2 45.8 Q 122.054 45.544 126.703 44.85 A 423.844 423.844 0 0 1 128.4 44.6 L 133 44 A 810.419 810.419 0 0 1 133.736 43.87 Q 134.582 43.722 135.049 43.642 A 70.8 70.8 0 0 1 135.3 43.6 A 61.104 61.104 0 0 0 136.858 43.352 Q 138.974 42.984 139.956 42.617 A 5.331 5.331 0 0 0 140 42.6 A 6.535 6.535 0 0 0 141.008 42.16 Q 141.483 41.906 141.986 41.555 A 13.283 13.283 0 0 0 142.6 41.1 L 143.5 40.4 A 0.144 0.144 0 0 1 143.505 40.361 Q 143.518 40.316 143.563 40.304 A 0.147 0.147 0 0 1 143.6 40.3 Q 143.931 39.969 143.988 39.363 A 2.814 2.814 0 0 0 144 39.1 A 2.882 2.882 0 0 0 143.733 37.933 Q 143.34 37.043 142.368 36.062 A 11.767 11.767 0 0 0 142.1 35.8 A 12.331 12.331 0 0 0 139.614 33.997 A 16.833 16.833 0 0 0 137.2 32.9 A 19.385 19.385 0 0 0 134.475 32.111 A 14.131 14.131 0 0 0 131.6 31.8 Q 127.4 31.8 124.3 34.2 A 14.284 14.284 0 0 0 121.237 37.161 A 18.685 18.685 0 0 0 119.7 39.5 A 31.114 31.114 0 0 0 116.988 45.686 A 23.746 23.746 0 0 0 115.9 52.7 A 47.015 47.015 0 0 0 115.906 53.494 Q 115.92 54.29 115.962 54.824 A 8.528 8.528 0 0 0 116 55.2 Q 116.3 58.1 117.75 60.75 A 15.138 15.138 0 0 0 120.731 64.617 A 14.24 14.24 0 0 0 121.4 65.2 A 16.276 16.276 0 0 0 126.588 67.963 A 18.806 18.806 0 0 0 127.2 68.15 Q 130.5 69.1 134 69.1 A 26.897 26.897 0 0 0 138.769 68.698 Q 141.637 68.181 144 67 A 19.745 19.745 0 0 0 147.209 65.136 Q 148.923 63.926 150.65 62.25 A 36.332 36.332 0 0 0 154.187 58.303 A 29.742 29.742 0 0 0 156.1 55.5 Z M 264 59 L 264 58.9 A 79.407 79.407 0 0 1 269.531 42.006 A 93.058 93.058 0 0 1 272.3 36.4 A 65.147 65.147 0 0 1 274.56 32.242 Q 275.808 30.143 277.068 28.457 A 27.258 27.258 0 0 1 279.6 25.5 Q 281.397 23.704 281.993 23.374 A 0.48 0.48 0 0 1 282.2 23.3 Q 282.5 23.3 282.8 24.05 Q 283.043 24.657 283.089 25.166 A 2.585 2.585 0 0 1 283.1 25.4 A 4.36 4.36 0 0 1 282.997 25.949 Q 282.787 26.805 282.2 28.2 L 281.6 29.6 Q 281.298 30.505 280.94 32.376 A 72.933 72.933 0 0 0 280.7 33.7 A 91.718 91.718 0 0 1 280.456 35.1 Q 280.2 36.504 279.973 37.441 A 16.995 16.995 0 0 1 279.8 38.1 A 5.693 5.693 0 0 1 279.506 39.085 A 6.24 6.24 0 0 1 279.5 39.1 L 279.1 40.1 A 17.831 17.831 0 0 0 278.834 40.714 Q 278.555 41.393 278.45 41.85 A 5.721 5.721 0 0 0 278.33 42.617 A 7.531 7.531 0 0 0 278.3 43.3 A 233.041 233.041 0 0 1 278.256 43.606 Q 278.1 44.688 278.1 44.6 L 276.5 49.6 Q 275.473 52.681 274.969 55.239 A 32.171 32.171 0 0 0 274.9 55.6 L 273.7 60.7 Q 273.47 63.074 273.123 64.919 A 29.31 29.31 0 0 1 272.9 66 Q 272.824 66.911 272.23 68.571 A 33.139 33.139 0 0 1 271.8 69.7 A 0.031 0.031 0 0 0 271.8 69.695 Q 271.789 69.694 271.618 71.056 A 387.024 387.024 0 0 0 271.6 71.2 Q 271.523 72.123 271.387 72.632 A 2.389 2.389 0 0 1 271.3 72.9 Q 271.137 73.308 270.64 73.983 A 14.94 14.94 0 0 1 270.4 74.3 A 9.403 9.403 0 0 1 269.972 74.814 Q 269.746 75.065 269.531 75.26 A 3.742 3.742 0 0 1 269.1 75.6 A 2.991 2.991 0 0 1 268.586 75.869 Q 268.323 75.978 268.005 76.065 A 7.265 7.265 0 0 1 267.4 76.2 A 2.935 2.935 0 0 1 267.072 76.261 Q 266.896 76.284 266.692 76.294 A 6.327 6.327 0 0 1 266.4 76.3 A 3.489 3.489 0 0 1 265.864 76.261 Q 265.58 76.217 265.346 76.122 A 1.774 1.774 0 0 1 265.1 76 L 265 75.8 A 3.879 3.879 0 0 1 264.64 75.733 Q 264.287 75.647 264.079 75.509 A 0.909 0.909 0 0 1 264 75.45 A 1.733 1.733 0 0 1 263.85 75.305 Q 263.598 75.036 263.177 74.45 A 25.295 25.295 0 0 1 263 74.2 Q 262.849 74.049 262.613 73.7 A 11.097 11.097 0 0 1 262.45 73.45 Q 262.1 72.9 261.7 72.55 A 3.946 3.946 0 0 0 261.258 72.218 Q 261.005 72.052 260.7 71.9 Q 259.7 71.4 259 70.8 L 258.4 69.9 Q 257.638 68.852 256.967 68.44 A 2.42 2.42 0 0 0 256.9 68.4 L 256.2 68 A 4.96 4.96 0 0 1 255.885 67.65 Q 255.492 67.174 255 66.4 A 29.303 29.303 0 0 0 254.069 65.298 Q 253.078 64.178 251.7 62.8 Q 250.591 61.77 250.015 61.085 A 6.491 6.491 0 0 1 249.75 60.75 Q 249.301 60.137 248.217 58.29 A 145.564 145.564 0 0 1 247.7 57.4 L 245.9 59.6 Q 245.071 60.731 243.815 63.112 A 88.259 88.259 0 0 0 242.95 64.8 Q 241.1 68.5 240.4 70.1 A 0.707 0.707 0 0 0 240.307 70.225 Q 240.116 70.532 239.8 71.4 Q 239.375 72.336 238.949 73.019 A 8.992 8.992 0 0 1 238.8 73.25 A 8.686 8.686 0 0 1 238.235 74.001 Q 237.947 74.345 237.6 74.699 A 14.179 14.179 0 0 1 237.5 74.8 A 7.371 7.371 0 0 1 235.792 76.095 A 5.798 5.798 0 0 1 233 76.8 A 5.66 5.66 0 0 1 231.207 76.502 A 6.028 6.028 0 0 1 231.2 76.5 Q 229.729 76.099 228.884 75.34 A 3.38 3.38 0 0 1 228.2 74.5 A 23.199 23.199 0 0 1 227.212 72.592 Q 225.909 69.8 224.4 65.2 L 222.2 58.4 A 108.536 108.536 0 0 1 221.519 56.678 Q 220.45 53.913 219.1 50.05 Q 217.387 45.148 217.032 43.644 A 7.309 7.309 0 0 1 217 43.5 Q 216.5 41.1 215.75 36 Q 215.068 31.36 215.006 30.114 A 4.415 4.415 0 0 1 215 29.9 A 9.113 9.113 0 0 1 215.116 29.014 Q 215.291 28.03 215.692 26.736 A 30.235 30.235 0 0 1 215.75 26.55 Q 216.282 24.872 216.714 24.299 A 1.11 1.11 0 0 1 216.9 24.1 Q 217.7 23.6 218.7 23.6 A 2.106 2.106 0 0 1 219.103 23.642 Q 219.304 23.682 219.529 23.757 A 4.984 4.984 0 0 1 219.9 23.9 A 8.098 8.098 0 0 1 220.346 24.106 Q 220.554 24.211 220.726 24.316 A 3.451 3.451 0 0 1 221 24.5 L 221.8 27 A 21.226 21.226 0 0 1 222.203 28.051 Q 223.016 30.322 224.5 35.4 A 86.765 86.765 0 0 1 224.983 36.891 Q 225.166 37.477 225.321 38.004 A 43.149 43.149 0 0 1 225.6 39 Q 226.1 40.9 226.45 42 A 14.2 14.2 0 0 0 226.713 42.746 Q 227.028 43.574 227.53 44.651 A 45.333 45.333 0 0 0 227.6 44.8 L 228.8 47.7 Q 228.883 47.783 228.897 47.934 A 0.703 0.703 0 0 1 228.9 48 A 34.547 34.547 0 0 1 230.237 51.982 Q 231.441 56.34 232.318 62.699 A 152.496 152.496 0 0 1 232.7 65.7 L 233 67.4 A 8.748 8.748 0 0 1 233.778 65.291 A 11.718 11.718 0 0 1 234.7 63.8 Q 235.428 62.992 235.763 62.445 A 3.259 3.259 0 0 0 235.9 62.2 A 2.914 2.914 0 0 1 236.051 62.018 Q 236.43 61.593 237.425 60.664 A 76.258 76.258 0 0 1 237.6 60.5 Q 238.405 59.695 239.13 59.13 A 11.577 11.577 0 0 1 239.3 59 Q 239.783 58.517 241.151 57.475 A 66.817 66.817 0 0 1 241.25 57.4 A 134.171 134.171 0 0 0 241.75 57.019 Q 242.737 56.263 242.9 56.1 L 244.8 54.7 L 246.3 53.6 L 249.3 51.6 Q 249.963 50.937 250.463 50.762 A 1.024 1.024 0 0 1 250.8 50.7 Q 251.3 50.7 252.6 51.2 Q 253.824 51.776 254.684 52.352 A 8.953 8.953 0 0 1 255.3 52.8 L 256 53.6 A 5.624 5.624 0 0 0 256.483 54.093 Q 256.748 54.334 257.077 54.586 A 13.713 13.713 0 0 0 257.8 55.1 Q 258.3 55.4 258.7 55.8 A 23.48 23.48 0 0 1 261.852 59.758 A 30.71 30.71 0 0 1 263.7 63.1 L 263.7 61.9 Q 263.7 60.366 263.895 59.484 A 3.859 3.859 0 0 1 264 59.1 L 264 59 Z M 178.9 39.5 L 179.1 39.4 A 53.849 53.849 0 0 1 184.469 34.735 Q 187.258 32.601 190.588 30.538 A 91.078 91.078 0 0 1 191.55 29.95 A 112.502 112.502 0 0 1 195.54 27.648 Q 200.309 25.035 203.4 24.1 Q 204.5 23.9 205.55 23.65 A 15.933 15.933 0 0 1 205.814 23.589 Q 206.535 23.431 206.676 23.486 A 0.068 0.068 0 0 1 206.7 23.5 A 0.124 0.124 0 0 1 206.805 23.568 Q 206.877 23.683 206.895 23.989 A 3.788 3.788 0 0 1 206.9 24.2 A 3.345 3.345 0 0 1 206.836 24.87 Q 206.748 25.303 206.537 25.643 A 2.089 2.089 0 0 1 206.5 25.7 Q 206.048 26.513 204.781 27.489 A 14.96 14.96 0 0 1 204.5 27.7 L 203.4 28.5 Q 202.932 28.968 201.501 31.012 A 116.821 116.821 0 0 0 201.3 31.3 A 57.353 57.353 0 0 1 200.594 32.269 Q 199.926 33.163 199.436 33.728 A 9.251 9.251 0 0 1 199 34.2 L 197.8 35.4 Q 197.059 35.894 196.657 36.253 A 3.773 3.773 0 0 0 196.5 36.4 L 196 37.2 Q 195.812 37.575 195.449 37.95 A 4.421 4.421 0 0 1 195.4 38 L 192.2 40.9 Q 190.8 42.1 190 42.8 Q 189.341 43.377 188.953 43.75 A 11.291 11.291 0 0 0 188.8 43.9 L 188.5 44.2 A 0.144 0.144 0 0 1 188.54 44.205 Q 188.584 44.218 188.596 44.263 A 0.147 0.147 0 0 1 188.6 44.3 A 14.167 14.167 0 0 1 189.659 45.187 Q 190.887 46.313 192.4 48.1 A 20.01 20.01 0 0 1 192.859 48.736 Q 193.261 49.319 193.482 49.75 A 4.091 4.091 0 0 1 193.6 50 Q 193.9 50.5 194.25 51.1 Q 194.488 51.508 194.887 52.008 A 14.37 14.37 0 0 0 195.3 52.5 Q 195.633 52.833 196.104 53.511 A 18.594 18.594 0 0 1 196.3 53.8 L 196.4 54 A 65.983 65.983 0 0 1 197.559 56.045 Q 198.722 58.178 200.1 61 A 524.652 524.652 0 0 0 200.901 62.665 Q 202.376 65.715 202.872 66.611 A 8.23 8.23 0 0 0 202.95 66.75 A 13.632 13.632 0 0 0 203.26 67.254 Q 203.779 68.065 204.816 69.537 A 186.295 186.295 0 0 0 205.5 70.5 A 18.643 18.643 0 0 1 206.619 72.013 A 15.906 15.906 0 0 1 207.05 72.7 A 47.063 47.063 0 0 0 207.349 73.199 Q 207.712 73.796 207.929 74.103 A 4.556 4.556 0 0 0 208 74.2 L 209.6 76.2 A 21.361 21.361 0 0 1 209.717 76.366 Q 210.019 76.797 210.083 76.943 A 0.165 0.165 0 0 1 210.1 77 A 0.163 0.163 0 0 1 210.052 77.105 Q 209.903 77.274 209.3 77.5 A 13.529 13.529 0 0 1 208.956 77.558 Q 208.227 77.672 207.953 77.614 A 0.476 0.476 0 0 1 207.9 77.6 A 2.424 2.424 0 0 1 207.412 77.479 Q 206.599 77.203 205.016 76.332 A 55.71 55.71 0 0 1 203.9 75.7 L 201.1 74.3 Q 198.5 73.1 197.7 72.4 Q 197.095 71.795 196.355 70.875 A 36.81 36.81 0 0 1 195.6 69.9 L 194.9 69.4 L 194.1 68.9 Q 193.335 68.135 192.278 66.376 A 40.004 40.004 0 0 1 191.6 65.2 Q 189.889 62.538 189.624 62.226 A 0.448 0.448 0 0 0 189.6 62.2 Q 189.402 61.804 188.958 61.014 A 95.556 95.556 0 0 0 188.95 61 A 76.996 76.996 0 0 1 188.709 60.569 Q 188.379 59.973 187.945 59.169 A 242.137 242.137 0 0 1 187.8 58.9 L 187.1 57.7 L 186.3 56.4 Q 185.9 55.9 185.65 55.3 Q 185.482 54.897 185.337 54.313 A 13.484 13.484 0 0 1 185.2 53.7 Q 184.7 52.2 184 50.7 Q 183.4 49.6 183.4 49.1 A 6.076 6.076 0 0 0 182.757 49.469 Q 182.428 49.688 182.172 49.93 A 3.612 3.612 0 0 0 182.1 50 A 0.49 0.49 0 0 1 182.052 50.039 Q 181.8 50.225 180.4 51.1 L 178.7 52 L 177.4 52.9 L 175.7 54 A 13.89 13.89 0 0 1 175.555 54.836 A 11.354 11.354 0 0 1 175.45 55.3 Q 175.3 55.9 175.2 56.4 A 59.8 59.8 0 0 1 173.228 63.72 Q 171.534 68.66 169.1 72.4 A 91.467 91.467 0 0 1 168.53 73.292 Q 166.637 76.213 166.2 76.3 Q 166.017 76.391 165.793 75.608 A 7.66 7.66 0 0 1 165.75 75.45 Q 165.559 74.723 165.514 74.142 A 4.444 4.444 0 0 1 165.5 73.8 A 5.942 5.942 0 0 1 165.572 72.976 Q 165.768 71.624 166.498 69.024 A 102.648 102.648 0 0 1 167 67.3 Q 167.3 66.7 167.3 63.7 A 578.566 578.566 0 0 1 167.304 61.595 Q 167.319 57.431 167.4 56.7 Q 167.4 56.08 167.58 54.979 A 30.022 30.022 0 0 1 167.7 54.3 Q 167.887 52.242 167.899 51.671 A 3.405 3.405 0 0 0 167.9 51.6 L 167.7 50.1 Q 167.614 49.585 167.602 48.921 A 12.137 12.137 0 0 1 167.6 48.7 L 167.7 42.2 A 563.082 563.082 0 0 0 167.696 40.126 Q 167.681 36.013 167.6 35.2 A 0.013 0.013 0 0 1 167.6 35.203 Q 167.594 35.203 167.4 32 A 96.038 96.038 0 0 0 167.351 30.705 Q 167.273 28.963 167.154 28.124 A 5.912 5.912 0 0 0 167.1 27.8 Q 167.1 27.458 166.954 25.803 A 223.856 223.856 0 0 0 166.9 25.2 A 160.513 160.513 0 0 1 166.783 23.901 Q 166.632 22.136 166.606 21.242 A 11.639 11.639 0 0 1 166.6 20.9 A 44.318 44.318 0 0 1 166.614 19.756 Q 166.637 18.85 166.7 18.1 Q 166.8 16.8 166.8 15.2 L 166.8 13.7 A 88.617 88.617 0 0 0 166.793 12.556 Q 166.787 12.103 166.776 11.689 A 50.362 50.362 0 0 0 166.75 10.9 A 21.759 21.759 0 0 1 166.74 10.613 Q 166.716 9.774 166.779 9.4 A 1.337 1.337 0 0 1 166.8 9.3 A 9.499 9.499 0 0 1 166.997 8.41 Q 167.241 7.499 167.7 6.35 Q 168.4 4.6 168.9 4.3 Q 169.7 3.8 170.7 3.8 Q 171.2 3.8 172 4.1 A 9.816 9.816 0 0 1 172.321 4.227 Q 172.763 4.41 172.943 4.55 A 0.615 0.615 0 0 1 173 4.6 A 0.567 0.567 0 0 1 173.089 4.745 Q 173.312 5.213 173.8 7 A 47.256 47.256 0 0 1 174.407 9.425 Q 174.975 11.953 175.5 15.3 Q 175.9 16.9 176 19.1 Q 176 19.882 176.096 21.143 A 54.523 54.523 0 0 0 176.1 21.2 A 17.279 17.279 0 0 0 176.214 22.236 Q 176.28 22.717 176.377 23.258 A 37.677 37.677 0 0 0 176.6 24.4 Q 176.8 25.3 176.9 26.2 A 29.81 29.81 0 0 1 176.944 26.619 Q 176.994 27.139 176.999 27.434 A 3.698 3.698 0 0 1 177 27.5 L 177 27.6 L 177 27.8 A 78.016 78.016 0 0 1 177.271 32.664 A 91.614 91.614 0 0 1 177.3 35 Q 177.3 37 177.1 41.8 L 178.9 39.5 Z M 734.1 41.4 L 734.1 41.6 Q 734.2 42.6 734.2 45.3 L 734.3 48.9 Q 734.3 56.73 734.708 61.707 A 64.765 64.765 0 0 0 734.9 63.7 A 18.758 18.758 0 0 0 735.328 65.647 Q 736.144 68.68 738.2 73.6 Q 738.285 73.77 739.022 74.665 A 78.036 78.036 0 0 0 739.3 75 Q 740.2 76.1 740.2 76.3 A 0.266 0.266 0 0 1 740.125 76.474 Q 739.94 76.687 739.3 76.9 A 5.868 5.868 0 0 1 738.9 77.019 Q 738.358 77.157 737.997 77.115 A 1.207 1.207 0 0 1 737.9 77.1 A 4.737 4.737 0 0 1 736.546 76.565 Q 735.209 75.806 733.7 74.1 A 216.831 216.831 0 0 1 732.716 73.111 Q 731.513 71.891 730.895 71.216 A 20.392 20.392 0 0 1 730.7 71 A 12.384 12.384 0 0 1 729.537 69.641 Q 728.997 68.917 728.473 68.035 A 24.299 24.299 0 0 1 728 67.2 A 1.228 1.228 0 0 1 727.906 66.999 Q 727.687 66.448 727.155 64.596 A 160.866 160.866 0 0 1 726.9 63.7 A 15.887 15.887 0 0 1 725.727 67.132 A 12.347 12.347 0 0 1 723.6 70.25 A 19.454 19.454 0 0 1 720.726 72.734 Q 719.189 73.831 717.3 74.8 Q 715.345 75.777 713.722 76.324 A 17.68 17.68 0 0 1 713 76.55 A 14.228 14.228 0 0 1 709.262 77.098 A 15.896 15.896 0 0 1 709 77.1 A 15.184 15.184 0 0 1 707.938 77.056 Q 706.141 76.928 702.946 76.423 A 138.455 138.455 0 0 1 702.8 76.4 Q 701.984 76.4 700.892 76.215 A 21.809 21.809 0 0 1 699.8 76 Q 698.942 75.809 698.629 75.619 A 0.859 0.859 0 0 1 698.6 75.6 A 17.101 17.101 0 0 1 691.582 66.592 A 21.186 21.186 0 0 1 691.55 66.5 Q 689.87 61.666 688.963 55.087 A 95.269 95.269 0 0 1 688.6 52.1 A 340.175 340.175 0 0 1 688.288 49.102 Q 687.914 45.33 687.827 43.347 A 24.181 24.181 0 0 1 687.8 42.3 A 18.299 18.299 0 0 1 687.833 41.292 Q 687.925 39.671 688.267 36.727 A 223.587 223.587 0 0 1 688.5 34.8 L 688.8 32.7 A 147.819 147.819 0 0 1 689.055 30.85 Q 689.461 28.051 689.792 26.716 A 7.679 7.679 0 0 1 690 26 Q 690.4 25.1 691.7 23.9 A 14.63 14.63 0 0 1 692.159 23.492 Q 692.878 22.883 693.284 22.742 A 0.67 0.67 0 0 1 693.5 22.7 A 1.888 1.888 0 0 1 693.941 22.759 Q 694.394 22.869 695.009 23.183 A 10.735 10.735 0 0 1 695.5 23.45 Q 696.753 24.173 697.077 24.664 A 0.998 0.998 0 0 1 697.1 24.7 Q 697.199 24.7 697.299 26.085 A 39.255 39.255 0 0 1 697.3 26.1 L 697.4 29.9 L 697.4 34.2 L 697.4 38.7 Q 697.4 40.691 697.429 42.007 A 61.191 61.191 0 0 0 697.45 42.75 A 17.14 17.14 0 0 0 697.515 43.739 Q 697.621 44.881 697.882 46.399 A 53.918 53.918 0 0 0 697.9 46.5 Q 698.053 47.495 698.265 49.253 A 230.092 230.092 0 0 1 698.4 50.4 L 698.4 50.8 Q 700.113 61.555 700.921 64.61 A 15.109 15.109 0 0 0 701 64.9 A 5.135 5.135 0 0 0 702.171 66.71 Q 702.72 67.274 703.476 67.771 A 10.56 10.56 0 0 0 704.1 68.15 Q 706.161 69.31 709.182 69.473 A 18.831 18.831 0 0 0 710.2 69.5 A 19.813 19.813 0 0 0 716.653 68.395 A 22.561 22.561 0 0 0 717.2 68.2 Q 720.7 66.9 723 64.7 L 725.8 61 L 725.6 60.3 A 29.063 29.063 0 0 1 725.333 58.672 Q 724.961 56.014 724.553 50.994 A 400.875 400.875 0 0 1 724.3 47.7 A 5.124 5.124 0 0 1 724.266 47.357 Q 724.205 46.51 724.2 44.376 A 166.942 166.942 0 0 1 724.2 44 A 366.588 366.588 0 0 1 724.21 41.245 Q 724.236 37.78 724.333 35.96 A 26.506 26.506 0 0 1 724.4 35 L 725.6 30.1 Q 726.421 26.36 726.576 25.948 A 0.167 0.167 0 0 1 726.6 25.9 A 3 3 0 0 1 726.822 25.534 Q 727.089 25.151 727.557 24.653 A 16.145 16.145 0 0 1 727.9 24.3 Q 728.9 23.3 729.5 23.1 Q 730.5 23 731.75 23.3 Q 732.936 23.585 733.447 24.139 A 1.629 1.629 0 0 1 733.5 24.2 A 0.203 0.203 0 0 1 733.579 24.297 Q 733.703 24.553 733.779 25.433 A 17.775 17.775 0 0 1 733.8 25.7 Q 733.994 26.961 734.188 31.418 A 296.24 296.24 0 0 1 734.2 31.7 L 734 34.5 L 733.8 36.9 L 734 38.9 Q 734.068 39.584 734.09 40.501 A 38.229 38.229 0 0 1 734.1 41.4 Z M 786.7 66.4 L 786.9 66.4 Q 792.659 66.217 803.012 67.538 A 255.072 255.072 0 0 1 805 67.8 L 812.8 68.7 A 153.619 153.619 0 0 1 813.8 68.894 Q 815.225 69.175 816.2 69.4 L 817.4 69.6 L 819 69.8 A 3.575 3.575 0 0 1 819.272 69.879 Q 819.685 70.018 819.775 70.197 A 0.227 0.227 0 0 1 819.8 70.3 A 0.628 0.628 0 0 1 819.765 70.496 Q 819.704 70.679 819.539 70.915 A 3.625 3.625 0 0 1 819.4 71.1 Q 818.8 71.9 818.3 72.2 A 1.643 1.643 0 0 1 817.959 72.357 Q 817.042 72.686 814.257 73.129 A 94.851 94.851 0 0 1 813.8 73.2 A 4.224 4.224 0 0 0 813.359 73.286 Q 812.393 73.517 810.2 74.3 Q 808.067 75.039 806.741 75.373 A 15.454 15.454 0 0 1 806.2 75.5 A 1.956 1.956 0 0 1 805.977 75.539 Q 805.494 75.6 804.4 75.6 L 802.6 75.6 L 800.6 76.2 A 3.251 3.251 0 0 1 800.316 76.242 Q 799.772 76.3 798.7 76.3 A 37.362 37.362 0 0 1 797.686 76.287 Q 796.841 76.264 796.2 76.2 A 206.217 206.217 0 0 0 794.74 76.205 Q 792.337 76.222 791.4 76.3 L 789 76.3 L 787 76.3 L 784.9 76.4 L 783 76.5 A 9.704 9.704 0 0 1 781.474 76.374 A 12.711 12.711 0 0 1 780.2 76.1 A 19.56 19.56 0 0 0 778.017 75.846 A 24.425 24.425 0 0 0 776.5 75.8 Q 775.346 75.8 774.695 75.682 A 3.02 3.02 0 0 1 774.35 75.6 A 4.332 4.332 0 0 1 773.941 75.448 Q 773.543 75.28 773.011 74.989 A 20.784 20.784 0 0 1 772.5 74.7 Q 771.49 74.156 771.053 73.673 A 1.658 1.658 0 0 1 770.85 73.4 A 2.643 2.643 0 0 1 770.631 72.904 Q 770.547 72.655 770.49 72.354 A 6.709 6.709 0 0 1 770.4 71.701 L 770.4 71.4 Q 770.4 70.8 770.55 70.2 Q 770.665 69.739 770.81 69.514 A 0.686 0.686 0 0 1 770.9 69.4 A 1.035 1.035 0 0 1 771.093 69.255 Q 771.433 69.049 772.181 68.802 A 16.134 16.134 0 0 1 772.5 68.7 L 772.7 68.4 Q 773.593 66.813 776.256 63.456 A 129.102 129.102 0 0 1 776.3 63.4 Q 777.8 61.5 778 61.2 Q 778.9 60.1 782 55.1 Q 784.2 51.4 786.3 48.5 A 88.092 88.092 0 0 1 788.128 46.292 A 102.447 102.447 0 0 1 788.9 45.4 Q 790.3 43.8 791.1 43 A 3.102 3.102 0 0 0 791.317 42.754 Q 791.694 42.285 792.3 41.3 Q 793 40.2 793.6 39.6 L 796.7 36.2 L 799.8 32.8 Q 798.1 32.8 793.9 32.6 L 791.7 32.5 Q 787.359 32.311 786.758 32.301 A 3.433 3.433 0 0 0 786.7 32.3 A 69.24 69.24 0 0 0 785.27 32.314 Q 784.137 32.338 783.2 32.4 Q 781.8 32.5 780 32.5 A 17.941 17.941 0 0 1 776.88 32.217 A 21.537 21.537 0 0 1 775.4 31.9 A 24.083 24.083 0 0 1 774.475 31.681 Q 773.17 31.343 772.644 31.005 A 1.45 1.45 0 0 1 772.5 30.9 A 1.645 1.645 0 0 1 772.071 30.329 Q 771.951 30.075 771.88 29.753 A 4.248 4.248 0 0 1 771.8 29.2 L 771.8 29.1 Q 771.8 28.5 772.15 27.75 A 5.77 5.77 0 0 1 772.317 27.419 Q 772.573 26.952 772.8 26.8 A 1.614 1.614 0 0 1 773.094 26.625 Q 773.842 26.261 775.965 25.709 A 59.139 59.139 0 0 1 776 25.7 A 55.639 55.639 0 0 1 780.716 24.613 Q 783.183 24.15 785.99 23.812 A 102.411 102.411 0 0 1 787.9 23.6 Q 789.483 23.374 792.658 23.318 A 128.454 128.454 0 0 1 794.9 23.3 Q 797.6 23.3 800.9 23 Q 804.1 22.8 805.2 22.9 L 805.5 22.9 L 807 22.8 Q 808.203 22.714 808.926 22.813 A 3.682 3.682 0 0 1 809.15 22.85 A 7.812 7.812 0 0 1 809.623 22.962 Q 810.294 23.141 811.3 23.5 Q 813.7 24.5 816.8 29.2 Q 817.1 29.6 817.1 30.1 Q 817.1 31.812 814.907 34.056 A 20.138 20.138 0 0 1 813.8 35.1 Q 810.5 38 805.6 41.5 A 182.815 182.815 0 0 0 804.389 42.337 Q 802.071 43.955 801.536 44.465 A 2.173 2.173 0 0 0 801.5 44.5 Q 798.234 47.25 794.452 50.96 A 182.105 182.105 0 0 0 793.2 52.2 Q 791.975 53.502 789.9 55.624 A 617.875 617.875 0 0 1 788.55 57 Q 785.5 60.1 782.6 62.9 A 165.55 165.55 0 0 1 781.181 64.256 Q 779.175 66.15 777.9 67.2 A 1.494 1.494 0 0 0 778.111 67.186 Q 778.275 67.163 778.4 67.1 L 783 66.9 Q 783.483 66.9 784.619 66.62 A 24.462 24.462 0 0 0 784.7 66.6 L 786.7 66.4 Z M 304.3 34.2 L 304.3 34.3 L 303.1 35.8 A 6.732 6.732 0 0 0 302.769 36.225 Q 302.231 36.967 301.418 38.369 A 57.189 57.189 0 0 0 301.4 38.4 A 34.056 34.056 0 0 0 299.705 41.725 A 31.072 31.072 0 0 0 299.5 42.2 L 298.6 44.6 Q 297.4 48.9 297.4 52.6 A 20.288 20.288 0 0 0 297.831 56.847 A 17.517 17.517 0 0 0 298.4 58.9 A 10.65 10.65 0 0 0 299.419 61.26 A 7.765 7.765 0 0 0 301.8 63.8 Q 307.7 67.2 314.6 67.2 A 23.116 23.116 0 0 0 320.524 66.453 A 21.655 21.655 0 0 0 320.9 66.35 A 21.836 21.836 0 0 0 324.741 64.874 A 19.011 19.011 0 0 0 326.3 64 A 19.103 19.103 0 0 0 330.297 60.626 A 16.691 16.691 0 0 0 332.3 57.85 A 23.617 23.617 0 0 0 333.411 55.684 Q 334.423 53.412 334.499 51.63 A 6.93 6.93 0 0 0 334.5 51.6 Q 334.772 47.065 331.672 39.487 A 73.482 73.482 0 0 0 331 37.9 Q 330.83 37.475 329.067 34.877 A 249.331 249.331 0 0 0 328.4 33.9 Q 327.7 33.1 327.7 32.7 A 0.189 0.189 0 0 1 327.768 32.661 Q 327.931 32.6 328.4 32.6 A 6.287 6.287 0 0 1 329.284 32.82 Q 330.184 33.11 331.3 33.7 Q 334.112 35.669 336.486 39.22 A 30.059 30.059 0 0 1 336.8 39.7 L 337.8 41.2 Q 339 42.9 339.9 44.4 Q 340.8 46 341.6 48.1 A 4.787 4.787 0 0 1 341.778 48.596 Q 341.962 49.206 342.1 50.1 A 2.088 2.088 0 0 1 342.141 50.332 Q 342.187 50.684 342.197 51.323 A 24.251 24.251 0 0 1 342.2 51.7 Q 342.2 53.308 342.083 54.564 A 18.783 18.783 0 0 1 342 55.3 L 341.8 58.3 A 12.008 12.008 0 0 1 341.192 60.019 A 15.495 15.495 0 0 1 340.5 61.4 A 12.728 12.728 0 0 1 339.607 62.998 Q 338.57 64.6 336.799 66.552 A 48.268 48.268 0 0 1 336.2 67.2 Q 333 70.6 329.4 72.8 A 28.794 28.794 0 0 1 317.84 76.5 A 36.028 36.028 0 0 1 314 76.7 A 30.471 30.471 0 0 1 311.519 76.594 A 38.057 38.057 0 0 1 309.7 76.4 A 28.204 28.204 0 0 1 302.102 74.62 A 21.147 21.147 0 0 1 293 67.8 A 22.665 22.665 0 0 1 290.058 62.848 A 20.588 20.588 0 0 1 289.45 61.25 Q 288.336 57.908 287.832 53.58 A 53.267 53.267 0 0 1 287.8 53.3 Q 287.6 51.1 287.6 50.2 A 18.468 18.468 0 0 1 287.666 48.593 Q 287.732 47.835 287.865 47.177 A 9.706 9.706 0 0 1 288 46.6 A 39.81 39.81 0 0 1 289.818 40.056 A 53.684 53.684 0 0 1 292.5 34 A 38.074 38.074 0 0 1 296.476 28.242 A 42.748 42.748 0 0 1 297.15 27.45 Q 299.129 25.183 300.979 23.822 A 13.718 13.718 0 0 1 302.4 22.9 Q 305.568 21.18 310.13 21.017 A 27.175 27.175 0 0 1 311.1 21 Q 313.8 21 315.9 21.7 A 4.783 4.783 0 0 1 316.574 21.966 Q 317.257 22.291 318.115 22.895 A 18.481 18.481 0 0 1 318.4 23.1 A 17.898 17.898 0 0 1 318.999 23.557 Q 319.966 24.331 320.2 24.8 Q 320.358 25.432 320.391 25.814 A 2.163 2.163 0 0 1 320.4 26 A 3.318 3.318 0 0 1 319.916 27.716 A 4.077 4.077 0 0 1 319.8 27.9 Q 319.518 28.464 319.059 28.675 A 1.295 1.295 0 0 1 319 28.7 A 0.159 0.159 0 0 1 318.941 28.727 Q 318.66 28.811 317.151 28.951 A 96.998 96.998 0 0 1 316.6 29 A 113.062 113.062 0 0 0 314.307 29.251 Q 311.116 29.637 309.65 30.05 A 11.905 11.905 0 0 0 308.358 30.491 Q 307.733 30.748 307.23 31.055 A 5.662 5.662 0 0 0 306.6 31.5 A 0.534 0.534 0 0 0 306.5 31.573 Q 306.231 31.806 305.5 32.7 L 304.3 34.2 Z M 531.8 34.2 L 531.8 34.3 L 530.6 35.8 A 6.732 6.732 0 0 0 530.269 36.225 Q 529.731 36.967 528.918 38.369 A 57.189 57.189 0 0 0 528.9 38.4 A 34.056 34.056 0 0 0 527.205 41.725 A 31.072 31.072 0 0 0 527 42.2 L 526.1 44.6 Q 524.9 48.9 524.9 52.6 A 20.288 20.288 0 0 0 525.331 56.847 A 17.517 17.517 0 0 0 525.9 58.9 A 10.65 10.65 0 0 0 526.919 61.26 A 7.765 7.765 0 0 0 529.3 63.8 Q 535.2 67.2 542.1 67.2 A 23.116 23.116 0 0 0 548.024 66.453 A 21.655 21.655 0 0 0 548.4 66.35 A 21.836 21.836 0 0 0 552.241 64.874 A 19.011 19.011 0 0 0 553.8 64 A 19.103 19.103 0 0 0 557.797 60.626 A 16.691 16.691 0 0 0 559.8 57.85 A 23.617 23.617 0 0 0 560.911 55.684 Q 561.923 53.412 561.999 51.63 A 6.93 6.93 0 0 0 562 51.6 Q 562.272 47.065 559.172 39.487 A 73.482 73.482 0 0 0 558.5 37.9 Q 558.33 37.475 556.567 34.877 A 249.331 249.331 0 0 0 555.9 33.9 Q 555.2 33.1 555.2 32.7 A 0.189 0.189 0 0 1 555.268 32.661 Q 555.431 32.6 555.9 32.6 A 6.287 6.287 0 0 1 556.784 32.82 Q 557.684 33.11 558.8 33.7 Q 561.612 35.669 563.986 39.22 A 30.059 30.059 0 0 1 564.3 39.7 L 565.3 41.2 Q 566.5 42.9 567.4 44.4 Q 568.3 46 569.1 48.1 A 4.787 4.787 0 0 1 569.278 48.596 Q 569.462 49.206 569.6 50.1 A 2.088 2.088 0 0 1 569.641 50.332 Q 569.687 50.684 569.697 51.323 A 24.251 24.251 0 0 1 569.7 51.7 Q 569.7 53.308 569.583 54.564 A 18.783 18.783 0 0 1 569.5 55.3 L 569.3 58.3 A 12.008 12.008 0 0 1 568.692 60.019 A 15.495 15.495 0 0 1 568 61.4 A 12.728 12.728 0 0 1 567.107 62.998 Q 566.07 64.6 564.299 66.552 A 48.268 48.268 0 0 1 563.7 67.2 Q 560.5 70.6 556.9 72.8 A 28.794 28.794 0 0 1 545.34 76.5 A 36.028 36.028 0 0 1 541.5 76.7 A 30.471 30.471 0 0 1 539.019 76.594 A 38.057 38.057 0 0 1 537.2 76.4 A 28.204 28.204 0 0 1 529.602 74.62 A 21.147 21.147 0 0 1 520.5 67.8 A 22.665 22.665 0 0 1 517.558 62.848 A 20.588 20.588 0 0 1 516.95 61.25 Q 515.836 57.908 515.332 53.58 A 53.267 53.267 0 0 1 515.3 53.3 Q 515.1 51.1 515.1 50.2 A 18.468 18.468 0 0 1 515.166 48.593 Q 515.232 47.835 515.365 47.177 A 9.706 9.706 0 0 1 515.5 46.6 A 39.81 39.81 0 0 1 517.318 40.056 A 53.684 53.684 0 0 1 520 34 A 38.074 38.074 0 0 1 523.976 28.242 A 42.748 42.748 0 0 1 524.65 27.45 Q 526.629 25.183 528.479 23.822 A 13.718 13.718 0 0 1 529.9 22.9 Q 533.068 21.18 537.63 21.017 A 27.175 27.175 0 0 1 538.6 21 Q 541.3 21 543.4 21.7 A 4.783 4.783 0 0 1 544.074 21.966 Q 544.757 22.291 545.615 22.895 A 18.481 18.481 0 0 1 545.9 23.1 A 17.898 17.898 0 0 1 546.499 23.557 Q 547.466 24.331 547.7 24.8 Q 547.858 25.432 547.891 25.814 A 2.163 2.163 0 0 1 547.9 26 A 3.318 3.318 0 0 1 547.416 27.716 A 4.077 4.077 0 0 1 547.3 27.9 Q 547.018 28.464 546.559 28.675 A 1.295 1.295 0 0 1 546.5 28.7 A 0.159 0.159 0 0 1 546.441 28.727 Q 546.16 28.811 544.651 28.951 A 96.998 96.998 0 0 1 544.1 29 A 113.062 113.062 0 0 0 541.807 29.251 Q 538.616 29.637 537.15 30.05 A 11.905 11.905 0 0 0 535.858 30.491 Q 535.233 30.748 534.73 31.055 A 5.662 5.662 0 0 0 534.1 31.5 A 0.534 0.534 0 0 0 534 31.573 Q 533.731 31.806 533 32.7 L 531.8 34.2 Z M 359.2 39.9 L 359.2 40.1 L 359.3 43.6 A 155.929 155.929 0 0 1 359.194 49.103 Q 358.991 54.819 358.4 62.3 Q 357.714 69.67 357.029 72.56 A 11.501 11.501 0 0 1 356.8 73.4 A 72.21 72.21 0 0 1 356.633 74.011 Q 356.086 75.974 355.907 76.096 A 0.06 0.06 0 0 1 355.9 76.1 L 355.8 76.1 A 1.396 1.396 0 0 1 355.501 76.065 Q 355.194 75.997 354.8 75.8 Q 354.283 75.542 354.063 75.283 A 0.891 0.891 0 0 1 354 75.2 A 1.519 1.519 0 0 1 353.786 74.818 Q 353.503 74.138 353.254 72.579 A 36.939 36.939 0 0 1 353.1 71.5 A 4.224 4.224 0 0 0 353.014 71.059 Q 352.783 70.093 352 67.9 Q 351.112 65.801 350.876 64.485 A 5.572 5.572 0 0 1 350.8 63.9 A 10.098 10.098 0 0 1 350.638 62.712 A 12.91 12.91 0 0 1 350.6 61.7 A 29.084 29.084 0 0 0 350.528 60.598 Q 350.416 59.291 350.2 58.5 L 349.8 57.3 Q 349.647 55.463 349.611 53.039 A 104.03 104.03 0 0 1 349.6 51.5 L 349.5 48.6 A 70.174 70.174 0 0 0 349.495 47.748 Q 349.481 46.593 349.426 46.019 A 4.888 4.888 0 0 0 349.4 45.8 Q 349.311 43.832 349.261 40.704 A 357.897 357.897 0 0 1 349.25 39.95 Q 349.2 36.308 349.2 34.508 A 79.047 79.047 0 0 1 349.2 34.5 Q 349.3 33.6 349.65 32 A 125.937 125.937 0 0 1 349.772 31.446 Q 349.991 30.466 350.08 30.165 A 1.913 1.913 0 0 1 350.1 30.1 L 350.7 26.4 A 2.98 2.98 0 0 1 350.967 25.919 Q 351.312 25.405 351.95 24.8 A 10.043 10.043 0 0 1 352.344 24.445 Q 352.96 23.92 353.341 23.814 A 0.828 0.828 0 0 1 353.4 23.8 Q 353.69 23.704 354.446 23.7 A 12.398 12.398 0 0 1 354.5 23.7 Q 356.112 23.7 356.919 24.076 A 1.67 1.67 0 0 1 357.4 24.4 A 0.561 0.561 0 0 1 357.489 24.529 Q 357.663 24.853 357.9 25.8 L 358.5 28.6 A 34.536 34.536 0 0 1 361.563 25.932 Q 363.223 24.659 364.855 23.79 A 18.795 18.795 0 0 1 365.95 23.25 Q 368.517 22.09 372.396 21.745 A 39.735 39.735 0 0 1 375.9 21.6 A 27.562 27.562 0 0 1 379.762 21.881 A 31.865 31.865 0 0 1 381.1 22.1 A 1.412 1.412 0 0 1 381.23 22.106 Q 381.357 22.117 381.434 22.154 A 0.241 0.241 0 0 1 381.5 22.2 Q 386.4 24.4 389.95 28.3 A 20.82 20.82 0 0 1 393.16 32.892 A 17.734 17.734 0 0 1 394.6 36.8 A 19.843 19.843 0 0 1 394.999 39.087 Q 395.137 40.249 395.18 41.568 A 37.763 37.763 0 0 1 395.2 42.8 A 51.741 51.741 0 0 1 394.846 48.657 Q 394.391 52.644 393.35 57.2 A 93.877 93.877 0 0 1 390.968 65.806 A 73.758 73.758 0 0 1 388.7 71.8 L 388.1 73.2 L 387.4 75.1 L 386.8 76 Q 386.702 76.098 386.413 75.717 A 3.45 3.45 0 0 1 386.4 75.7 Q 386.115 75.415 385.855 74.926 A 6.215 6.215 0 0 1 385.65 74.5 A 6.116 6.116 0 0 1 385.473 74.052 Q 385.319 73.606 385.302 73.278 A 1.53 1.53 0 0 1 385.3 73.2 Q 385.3 72.519 385.807 68.215 A 582.802 582.802 0 0 1 386 66.6 L 386.3 60 A 433.941 433.941 0 0 1 386.304 58.187 Q 386.318 54.844 386.388 53.683 A 11.192 11.192 0 0 1 386.4 53.5 L 386.8 47.4 L 386.6 45.6 L 386.3 44.3 A 53.31 53.31 0 0 0 385.66 40.875 Q 384.955 37.725 384.01 35.819 A 7.917 7.917 0 0 0 382.9 34.1 A 7.899 7.899 0 0 0 379.654 31.971 Q 378.365 31.501 376.77 31.318 A 19.008 19.008 0 0 0 374.6 31.2 A 28.259 28.259 0 0 0 373.987 31.206 Q 373.327 31.221 372.865 31.268 A 6.7 6.7 0 0 0 372.6 31.3 Q 370.189 31.466 368.78 31.806 A 8.519 8.519 0 0 0 368.25 31.95 A 11.858 11.858 0 0 0 367.099 32.379 Q 366.499 32.636 365.836 32.983 A 25.204 25.204 0 0 0 364.9 33.5 A 5.22 5.22 0 0 0 364.692 33.612 Q 364.259 33.853 363.4 34.4 A 11.922 11.922 0 0 1 361.922 35.205 A 10.17 10.17 0 0 1 361.2 35.5 Q 360.1 35.9 358.7 36.2 A 40.056 40.056 0 0 1 358.756 36.488 Q 358.845 36.951 358.985 37.719 A 272.495 272.495 0 0 1 359 37.8 A 12.417 12.417 0 0 1 359.178 39.233 A 10.519 10.519 0 0 1 359.2 39.9 Z M 28 70.4 L 28 68.2 A 15.923 15.923 0 0 0 27.932 66.813 Q 27.783 65.113 27.3 62.7 Q 26.7 59.8 26.5 57 L 26.4 55.8 L 26.5 54.2 L 26.5 51.4 L 26.2 49.8 L 25.9 48.3 A 23.734 23.734 0 0 1 25.866 47.593 Q 25.802 45.819 25.8 41.536 A 607.236 607.236 0 0 1 25.8 41.2 A 530.862 530.862 0 0 0 25.795 38.854 Q 25.782 35.908 25.733 34.393 A 34.895 34.895 0 0 0 25.7 33.6 L 25.5 26.3 L 25.4 22.9 Q 25.3 21.1 25.3 18.9 Q 25.3 16.7 25.5 15.1 L 25.8 12 L 25.8 11.7 Q 22.897 11.894 22.897 11.9 A 0.006 0.006 0 0 0 22.899 11.9 L 18.8 12.2 Q 16.987 12.447 15.853 12.491 A 11.862 11.862 0 0 1 15.4 12.5 A 35.596 35.596 0 0 1 14.023 12.471 Q 12.479 12.411 10.399 12.227 A 118.022 118.022 0 0 1 10.1 12.2 L 7.5 12.3 L 6.3 12.3 A 24.109 24.109 0 0 1 6.017 12.299 Q 5.285 12.29 5.075 12.234 A 0.177 0.177 0 0 1 5 12.2 Q 4 12.1 2.4 11.35 A 14.958 14.958 0 0 1 1.762 11.034 Q 0.873 10.564 0.578 10.208 A 0.877 0.877 0 0 1 0.5 10.1 Q 0 9.3 0 8.3 A 2.746 2.746 0 0 1 0.024 7.953 Q 0.071 7.593 0.204 7.111 A 10.403 10.403 0 0 1 0.25 6.95 Q 0.5 6.1 0.7 6 A 0.226 0.226 0 0 1 0.755 5.967 Q 1.05 5.825 2.8 5.3 A 61.256 61.256 0 0 1 4.673 4.781 Q 6.787 4.227 9.684 3.591 A 207.011 207.011 0 0 1 10.1 3.5 Q 12.973 3.117 13.462 3.101 A 1.172 1.172 0 0 1 13.5 3.1 A 12.965 12.965 0 0 0 14.029 3.088 Q 14.578 3.066 15.3 3 A 13.185 13.185 0 0 0 16.127 2.896 Q 16.984 2.763 18.1 2.5 L 20.6 2.1 L 20.8 2.1 L 20.9 2.1 Q 24.116 1.947 26.276 1.911 A 74.05 74.05 0 0 1 27.5 1.9 A 7.452 7.452 0 0 1 27.766 1.369 Q 28.046 0.864 28.326 0.595 A 1.465 1.465 0 0 1 28.5 0.45 A 1.482 1.482 0 0 1 28.881 0.266 Q 29.265 0.137 29.849 0.108 A 7.178 7.178 0 0 1 30.2 0.1 Q 30.7 0.1 31.45 0.45 A 5.77 5.77 0 0 1 31.781 0.617 Q 32.248 0.873 32.4 1.1 A 0.248 0.248 0 0 1 32.492 1.192 Q 32.598 1.356 32.668 1.775 A 5.73 5.73 0 0 1 32.7 2 A 97.355 97.355 0 0 1 38.975 2.653 Q 41.932 3.063 44.498 3.641 A 50.863 50.863 0 0 1 46.75 4.2 A 40.142 40.142 0 0 1 52.421 6.249 Q 55.118 7.446 57.974 9.108 A 70.297 70.297 0 0 1 59.3 9.9 L 60.7 10.5 L 62.4 11.4 Q 62.793 11.636 63.062 11.871 A 2.834 2.834 0 0 1 63.2 12 A 0.219 0.219 0 0 1 63.238 12.05 Q 63.34 12.236 62.9 12.5 Q 62.589 12.733 62.127 12.936 A 6.405 6.405 0 0 1 61.85 13.05 A 4.479 4.479 0 0 1 61.384 13.202 Q 61.152 13.264 60.943 13.286 A 2.23 2.23 0 0 1 60.7 13.3 A 1.734 1.734 0 0 1 60.573 13.308 Q 59.49 13.335 55.353 12.423 A 148.367 148.367 0 0 1 54.8 12.3 A 22.036 22.036 0 0 0 53.173 12.042 Q 51.712 11.863 49.9 11.8 L 47.7 11.7 A 51.557 51.557 0 0 1 47.074 11.697 Q 45.825 11.681 45.5 11.6 A 183.594 183.594 0 0 0 44.35 11.464 Q 42.05 11.2 41.4 11.2 L 40.2 11.4 L 38.9 11.6 A 102.212 102.212 0 0 1 36.017 11.561 A 83.711 83.711 0 0 1 34.4 11.5 A 7.958 7.958 0 0 0 34.41 11.908 Q 34.431 12.325 34.5 12.6 Q 34.7 14.6 34.7 16.7 Q 34.7 18.7 34.75 19.85 Q 34.8 21 35.1 22.4 L 35.4 25.6 L 35.4 25.7 L 35.4 25.9 Q 35.553 29.116 35.589 31.276 A 74.05 74.05 0 0 1 35.6 32.5 Q 35.6 40.08 34.779 49.594 A 307.741 307.741 0 0 1 34.2 55.6 Q 33 67.3 31.4 72.5 Q 30.194 76.584 29.934 76.963 A 0.111 0.111 0 0 1 29.9 77 Q 29.802 77.098 29.513 76.717 A 3.45 3.45 0 0 1 29.5 76.7 A 6.835 6.835 0 0 1 28.918 75.972 Q 28.433 75.264 28.3 74.6 Q 28.005 73.42 28 70.499 A 59.132 59.132 0 0 1 28 70.4 Z M 97.5 44.4 L 96.5 48.2 A 51.093 51.093 0 0 0 96.181 49.238 Q 95.75 50.7 95.6 51.6 Q 94.922 54.313 94.901 57.776 A 36.644 36.644 0 0 0 94.9 58 Q 94.9 64.3 97.2 69.4 A 3.549 3.549 0 0 0 97.539 69.929 Q 98.262 70.892 100.1 72.5 L 102.6 75 A 0.183 0.183 0 0 1 102.531 75.038 Q 102.352 75.1 101.8 75.1 Q 101.218 75.1 100.221 74.858 A 17.512 17.512 0 0 1 99.8 74.75 A 14.471 14.471 0 0 1 99.046 74.526 Q 98.319 74.288 97.849 74.027 A 3.936 3.936 0 0 1 97.8 74 A 18.743 18.743 0 0 1 93.331 70.203 A 16.919 16.919 0 0 1 91.4 67.4 A 19.315 19.315 0 0 1 91.308 68.086 Q 91.134 69.21 90.9 69.6 Q 88.7 73.5 84.2 74.8 A 48.673 48.673 0 0 1 77.774 76.367 A 36.407 36.407 0 0 1 71.7 76.9 Q 70.357 76.9 69.576 76.838 A 8.528 8.528 0 0 1 69.2 76.8 A 5.602 5.602 0 0 1 68.361 76.67 Q 66.616 76.285 63.1 74.8 A 5.513 5.513 0 0 1 62.889 74.742 Q 62.552 74.643 61.946 74.437 A 66.414 66.414 0 0 1 61.55 74.3 A 15.402 15.402 0 0 1 61.026 74.108 Q 60.317 73.832 60.014 73.61 A 1.393 1.393 0 0 1 60 73.6 A 16.492 16.492 0 0 1 56.014 69.265 A 19.574 19.574 0 0 1 55.35 68.15 A 17.425 17.425 0 0 1 53.332 62.319 A 16.576 16.576 0 0 1 53.2 61.2 A 6.936 6.936 0 0 1 53.186 60.753 Q 53.186 58.513 54.599 55.894 A 19.45 19.45 0 0 1 55.6 54.25 Q 58.2 50.4 62.1 48.4 A 12.629 12.629 0 0 1 63.623 47.685 Q 65.316 47.009 67.864 46.392 A 61.596 61.596 0 0 1 69.6 46 Q 74.8 44.9 78.8 44.9 A 24.012 24.012 0 0 1 83.349 45.36 Q 85.482 45.772 87.789 46.552 A 41.573 41.573 0 0 1 88.5 46.8 L 88.7 45.9 L 88.7 44.2 L 88.6 42.7 Q 88.6 39.541 88.226 37.723 A 8.204 8.204 0 0 0 88 36.85 A 5.863 5.863 0 0 0 87.587 35.867 Q 87.308 35.352 86.949 34.998 A 2.656 2.656 0 0 0 86.15 34.45 A 6.102 6.102 0 0 0 85.289 34.154 Q 84.128 33.841 82.3 33.7 A 3.397 3.397 0 0 0 82.003 33.657 Q 81.502 33.603 80.588 33.6 A 32.7 32.7 0 0 0 80.5 33.6 Q 78.008 33.6 74.888 34.043 A 59.75 59.75 0 0 0 73.85 34.2 A 52.98 52.98 0 0 0 72.109 34.506 Q 69.7 34.975 68.5 35.5 Q 67.1 36.1 66 37.1 L 65.3 37.7 L 64 39 A 37.299 37.299 0 0 1 63.517 39.56 Q 62.836 40.333 62.457 40.653 A 2.851 2.851 0 0 1 62.4 40.7 A 2.46 2.46 0 0 1 61.928 40.992 Q 61.534 41.181 61 41.3 L 60.8 41.3 Q 60.3 41.3 59.5 41 Q 58.7 40.7 58.5 40.4 Q 57.822 37.786 58.082 36.765 A 1.602 1.602 0 0 1 58.1 36.7 A 12.046 12.046 0 0 1 59.133 33.924 Q 59.762 32.692 60.7 31.45 A 16.392 16.392 0 0 1 62.948 29.003 A 13.101 13.101 0 0 1 65.2 27.4 A 14.525 14.525 0 0 1 67.459 26.281 Q 69.829 25.332 73.257 24.69 A 50.448 50.448 0 0 1 73.75 24.6 Q 79.165 23.642 82.605 23.786 A 19.308 19.308 0 0 1 82.9 23.8 L 83.3 23.8 Q 88.8 25 93 28.45 Q 97.2 31.9 98 36.3 Q 98.3 37.2 98.3 38.6 Q 98.3 40.145 97.939 42.232 A 41.57 41.57 0 0 1 97.5 44.4 Z M 449.6 75.2 L 449.1 77.4 A 11.481 11.481 0 0 1 448.991 77.713 Q 448.813 78.201 448.674 78.407 A 0.626 0.626 0 0 1 448.6 78.5 Q 448.5 78.6 448.1 78.2 A 3.615 3.615 0 0 1 447.737 77.772 Q 447.537 77.497 447.35 77.15 Q 447.09 76.667 446.968 76.267 A 2.797 2.797 0 0 1 446.9 76 A 4.469 4.469 0 0 1 446.75 75.331 Q 446.482 73.676 446.401 69.272 A 166.126 166.126 0 0 1 446.4 69.2 Q 446.2 66.6 445.6 63.8 Q 445 60.9 444.8 57.9 A 44.318 44.318 0 0 1 444.814 56.756 Q 444.837 55.85 444.9 55.1 Q 444.9 53.952 444.871 53.155 A 24.405 24.405 0 0 0 444.85 52.7 Q 444.8 51.8 444.6 50.9 L 444.4 49.4 A 7.622 7.622 0 0 1 444.381 49.065 Q 444.331 47.739 444.457 43.703 A 412.705 412.705 0 0 1 444.5 42.4 A 405.54 405.54 0 0 0 444.557 40.617 Q 444.679 36.487 444.607 35.39 A 5.121 5.121 0 0 0 444.6 35.3 Q 444.6 33.9 444.7 33.1 L 444.7 30.6 L 444.7 28.4 L 444.7 24.5 A 213.352 213.352 0 0 1 444.702 23.656 Q 444.711 21.352 444.773 20.974 A 0.098 0.098 0 0 1 444.8 20.9 L 445.2 17.7 Q 445.6 14.9 445.8 12 A 80.532 80.532 0 0 1 445.897 10.88 Q 446.042 9.344 446.186 8.618 A 6.395 6.395 0 0 1 446.2 8.55 Q 446.4 7.6 447.2 5.9 Q 447.953 4.206 448.529 3.707 A 1.313 1.313 0 0 1 448.6 3.65 Q 449.159 3.231 450.239 3.289 A 5.509 5.509 0 0 1 450.4 3.3 Q 451 3.3 451.7 3.7 A 49.154 49.154 0 0 1 454.697 3.29 Q 456.068 3.148 457.297 3.112 A 27.748 27.748 0 0 1 458.1 3.1 Q 460.9 3.1 466.9 3.7 Q 467 3.7 469.3 3.9 Q 471.1 4 472.7 4.4 L 472.9 4.4 A 70.818 70.818 0 0 1 481.137 6.713 Q 485.313 8.18 488.745 10.083 A 39.289 39.289 0 0 1 490.95 11.4 Q 498.1 16 502.9 24.4 Q 507.1 31.8 507.1 40.1 Q 507.1 45.3 505.4 50.3 Q 503.7 55.3 500.4 59.6 Q 494.7 67.3 486.15 71.75 A 40.101 40.101 0 0 1 474.777 75.717 A 36.21 36.21 0 0 1 468.7 76.3 A 126.207 126.207 0 0 1 463.363 76.196 Q 455.62 75.866 452.141 74.498 A 10.503 10.503 0 0 1 451.9 74.4 A 2.75 2.75 0 0 1 451.182 74.122 Q 450.869 73.951 450.545 73.691 A 6.692 6.692 0 0 1 450 73.2 A 1.412 1.412 0 0 1 449.995 73.33 Q 449.983 73.457 449.946 73.534 A 0.241 0.241 0 0 1 449.9 73.6 A 0.792 0.792 0 0 0 449.817 73.779 Q 449.71 74.092 449.639 74.77 A 15.617 15.617 0 0 0 449.6 75.2 Z M 450.5 70.9 L 451 70.9 L 453.2 71.2 A 96.049 96.049 0 0 0 453.829 71.268 Q 455.047 71.395 455.468 71.4 A 2.804 2.804 0 0 0 455.5 71.4 Q 457.6 71.4 461.5 70.1 A 168.609 168.609 0 0 1 463.188 69.607 Q 465.318 68.998 466.448 68.753 A 15.785 15.785 0 0 1 466.7 68.7 A 2.081 2.081 0 0 1 466.995 68.612 Q 467.479 68.499 468.414 68.427 A 26.74 26.74 0 0 1 468.8 68.4 Q 469.445 68.308 470.937 68.046 A 239.953 239.953 0 0 0 471.2 68 A 3.447 3.447 0 0 0 471.537 67.913 Q 471.934 67.791 472.45 67.55 A 10.939 10.939 0 0 0 472.885 67.336 Q 473.296 67.122 473.563 66.928 A 3.066 3.066 0 0 0 473.6 66.9 L 474.4 66.7 L 475.9 66.3 Q 477.9 65.7 480.2 64.7 Q 483.1 63.4 485.7 61.7 Q 490.8 58.4 494.2 52.6 Q 497.6 46.8 497.6 40.4 Q 497.6 34.7 495.25 29.75 Q 492.9 24.8 489.1 21.9 Q 483.7 17.8 477.1 15.8 L 470.9 14.1 L 467.3 13.4 A 54.177 54.177 0 0 1 465.959 13.243 Q 465.436 13.175 464.971 13.101 A 26.309 26.309 0 0 1 464.1 12.95 Q 462.8 12.7 461.3 12.3 A 41.455 41.455 0 0 0 457.682 11.527 A 35.576 35.576 0 0 0 456.1 11.3 Q 453.7 11.1 453.8 11.1 A 45.403 45.403 0 0 1 454.277 15.386 A 59.748 59.748 0 0 1 454.4 19.3 L 454.3 22.6 L 454.5 25.1 A 55.468 55.468 0 0 1 454.558 25.822 Q 454.683 27.517 454.6 28.1 L 454.6 28.2 L 454.6 28.4 Q 454.792 38.363 452.689 55.21 A 416.01 416.01 0 0 1 452.5 56.7 Q 451.4 66.5 450.5 70.9 Z M 758.3 40.3 L 758.3 40.5 A 63.635 63.635 0 0 1 758.327 42.26 Q 758.334 46.647 757.797 52.431 A 192.466 192.466 0 0 1 757.2 57.95 A 211.993 211.993 0 0 1 756.591 62.555 Q 755.756 68.334 754.921 71.205 A 16.588 16.588 0 0 1 754.6 72.2 A 88.885 88.885 0 0 1 754.361 72.908 Q 753.712 74.801 753.417 75.329 A 0.821 0.821 0 0 1 753.3 75.5 A 0.14 0.14 0 0 1 753.245 75.514 Q 753.061 75.525 752.641 75.169 A 6.002 6.002 0 0 1 752.45 75 Q 751.8 74.4 751.6 73.9 A 5.383 5.383 0 0 1 751.381 73.081 Q 751.213 72.214 751.201 70.999 A 19.333 19.333 0 0 1 751.2 70.8 A 345.522 345.522 0 0 0 751.156 70.447 Q 751 69.212 751 69.3 Q 751 68.2 750.2 65.5 A 80.956 80.956 0 0 1 749.845 64.283 Q 749.379 62.637 749.243 61.816 A 5.042 5.042 0 0 1 749.2 61.5 A 3.092 3.092 0 0 1 749.161 61.234 Q 749.1 60.672 749.1 59.5 Q 749.1 58.813 749.076 58.267 A 16.73 16.73 0 0 0 749.05 57.8 A 5.565 5.565 0 0 0 748.913 56.895 A 4.783 4.783 0 0 0 748.8 56.5 A 16.528 16.528 0 0 1 748.698 56.221 Q 748.501 55.665 748.5 55.501 A 0.28 0.28 0 0 1 748.5 55.5 A 12.939 12.939 0 0 1 748.466 54.989 Q 748.402 53.718 748.4 50.734 A 294.71 294.71 0 0 1 748.4 50.5 L 748.4 45.3 A 41.955 41.955 0 0 1 748.363 44.213 Q 748.325 42.439 748.397 40.006 A 131.89 131.89 0 0 1 748.4 39.9 Q 748.5 36.6 748.6 34.8 L 749.2 32.4 L 749.7 30.5 Q 750.521 26.76 750.676 26.348 A 0.167 0.167 0 0 1 750.7 26.3 Q 751 25.6 752.05 24.45 A 12.958 12.958 0 0 1 752.424 24.056 Q 753.055 23.421 753.442 23.252 A 0.782 0.782 0 0 1 753.6 23.2 A 1.487 1.487 0 0 1 753.805 23.15 Q 754.017 23.111 754.319 23.103 A 6.387 6.387 0 0 1 754.5 23.1 A 4.305 4.305 0 0 1 756.081 23.41 A 5.437 5.437 0 0 1 756.7 23.7 Q 757.093 23.936 757.362 24.171 A 2.834 2.834 0 0 1 757.5 24.3 A 0.251 0.251 0 0 1 757.54 24.382 Q 757.652 24.692 757.9 26.1 Q 758.2 28.7 758.3 31.9 Q 758.3 33.207 758.213 34.253 A 19.751 19.751 0 0 1 758.2 34.4 L 758 36.5 L 758.2 38.2 Q 758.286 38.974 758.298 39.969 A 27.307 27.307 0 0 1 758.3 40.3 Z M 89.6 67.1 L 90.7 66 Q 87.688 59.318 87.688 52.901 A 27.245 27.245 0 0 1 87.7 52.1 A 3.956 3.956 0 0 1 87.706 51.869 Q 87.719 51.648 87.759 51.509 A 0.63 0.63 0 0 1 87.8 51.4 L 83.3 51.8 Q 77.043 52.856 73.457 53.911 A 25.92 25.92 0 0 0 71.4 54.6 Q 68.31 55.789 66.601 56.726 A 12.909 12.909 0 0 0 65.8 57.2 Q 65.25 57.75 64.886 58.238 A 5.983 5.983 0 0 0 64.7 58.5 A 14.37 14.37 0 0 1 64.463 58.911 Q 64.133 59.462 63.91 59.69 A 1.31 1.31 0 0 1 63.9 59.7 A 0.144 0.144 0 0 0 63.86 59.705 Q 63.816 59.718 63.804 59.763 A 0.147 0.147 0 0 0 63.8 59.8 A 9.134 9.134 0 0 0 63.379 61.118 Q 63.206 61.865 63.2 62.556 A 5.657 5.657 0 0 0 63.2 62.6 A 5.344 5.344 0 0 0 65.638 67.126 Q 66.583 67.804 67.894 68.328 A 17.084 17.084 0 0 0 69.6 68.9 Q 73.7 70.3 79.6 70.3 A 36.937 36.937 0 0 0 82.814 70.168 Q 85.019 69.975 86.8 69.5 A 1.344 1.344 0 0 0 87.119 69.388 Q 87.523 69.192 88.05 68.7 A 21.6 21.6 0 0 0 88.91 67.849 A 27.449 27.449 0 0 0 89.6 67.1 Z M 412.1 42.8 L 412.2 42.8 A 22.859 22.859 0 0 1 413.688 42.753 Q 417.747 42.753 422.8 44.1 Q 428.8 45.7 431.3 47.4 A 59.564 59.564 0 0 1 431.792 47.708 Q 433.4 48.725 433.4 48.9 L 433.4 49 Q 433.4 49.254 433.185 49.651 A 3.862 3.862 0 0 1 433.1 49.8 A 3.094 3.094 0 0 1 432.759 50.269 A 2.449 2.449 0 0 1 432.4 50.6 A 1.384 1.384 0 0 1 432.016 50.773 Q 431.459 50.935 430.529 50.818 A 7.962 7.962 0 0 1 430.4 50.8 L 429.5 50.8 Q 428.434 50.994 427.181 51.469 A 18.428 18.428 0 0 0 427.1 51.5 A 20.587 20.587 0 0 1 425.972 51.869 Q 425.42 52.031 424.924 52.136 A 11.071 11.071 0 0 1 424.6 52.2 Q 424 52.2 423.5 52.1 A 7.723 7.723 0 0 0 422.872 52.124 Q 422.131 52.185 421.7 52.4 L 421 52.6 L 419.9 52.7 L 418.2 52.6 A 5.739 5.739 0 0 0 417.788 52.548 Q 417.367 52.51 416.79 52.502 A 22.022 22.022 0 0 0 416.5 52.5 Q 415.808 52.5 415.411 52.559 A 2.245 2.245 0 0 0 415.2 52.6 L 413.6 52.6 A 19.018 19.018 0 0 0 413.219 52.604 Q 412.462 52.619 412.3 52.7 L 411 52.7 L 409.8 52.8 A 3.653 3.653 0 0 1 408.882 52.677 A 5.051 5.051 0 0 1 408.1 52.4 Q 406.9 52.1 405.7 52 A 6.513 6.513 0 0 1 405.229 51.984 Q 404.673 51.944 404.35 51.8 A 1.844 1.844 0 0 1 404.086 51.652 Q 403.818 51.474 403.465 51.151 A 11.582 11.582 0 0 1 403.1 50.8 A 8.253 8.253 0 0 1 402.707 50.381 Q 402.245 49.85 402.1 49.45 A 3.21 3.21 0 0 1 401.995 49.089 Q 401.872 48.563 401.8 47.7 L 401.7 46.6 Q 401.7 46.106 401.85 45.761 A 1.286 1.286 0 0 1 402 45.5 A 3.43 3.43 0 0 1 402.544 45.061 A 4.465 4.465 0 0 1 403 44.8 A 7.311 7.311 0 0 1 403.852 44.383 Q 404.781 43.993 406.151 43.637 A 30.368 30.368 0 0 1 406.7 43.5 A 11.367 11.367 0 0 1 407.537 43.363 Q 407.97 43.31 408.358 43.302 A 6.613 6.613 0 0 1 408.5 43.3 A 22.71 22.71 0 0 0 409.037 43.294 Q 409.809 43.276 410.15 43.2 A 6.376 6.376 0 0 0 410.359 43.15 Q 410.569 43.096 410.705 43.042 A 1.209 1.209 0 0 0 410.8 43 L 412.1 42.8 Z M 758.7 16 L 757.2 16.8 Q 756.971 16.877 756.507 16.895 A 7.948 7.948 0 0 1 756.2 16.9 A 7.197 7.197 0 0 1 754.249 16.619 A 9.645 9.645 0 0 1 752.85 16.1 Q 751.1 15.3 749.8 14 A 3.926 3.926 0 0 1 749.235 13.273 Q 748.903 12.731 748.65 12 Q 748.2 10.7 748.2 9.3 A 7.302 7.302 0 0 1 748.336 7.851 Q 748.55 6.795 749.1 6 A 4.26 4.26 0 0 1 750.136 4.808 Q 750.627 4.41 751.276 4.079 A 9.122 9.122 0 0 1 752 3.75 A 11.06 11.06 0 0 1 752.972 3.405 Q 754.415 2.973 755.4 3.2 A 2.635 2.635 0 0 1 755.767 3.304 Q 756.141 3.438 756.6 3.7 Q 757.3 4.1 757.5 4.4 Q 757.748 4.649 757.791 5.103 A 2.11 2.11 0 0 1 757.8 5.3 Q 757.8 6 757.2 6.5 L 756.2 6.8 L 753.8 7.9 A 2.964 2.964 0 0 0 753.517 8.113 Q 753.226 8.362 753.129 8.611 A 0.741 0.741 0 0 0 753.1 8.7 Q 753 8.8 753.1 9.1 A 0.881 0.881 0 0 1 753.172 9.31 Q 753.193 9.408 753.198 9.522 A 1.684 1.684 0 0 1 753.2 9.6 Q 754.175 11.225 755.446 11.794 A 3.519 3.519 0 0 0 756.9 12.1 Q 757.462 12.1 758.113 11.836 A 4.783 4.783 0 0 0 758.2 11.8 A 3.146 3.146 0 0 0 759.679 10.671 A 4.186 4.186 0 0 0 759.95 10.25 A 4.216 4.216 0 0 0 760.513 8.144 A 4.484 4.484 0 0 0 760.5 7.8 A 0.579 0.579 0 0 0 760.469 7.633 Q 760.388 7.372 760.091 6.896 A 11.404 11.404 0 0 0 759.9 6.6 Q 759.218 5.918 759.2 5.711 A 0.126 0.126 0 0 1 759.2 5.7 Q 759.2 5.6 759.6 5.6 A 0.835 0.835 0 0 1 759.71 5.611 Q 759.969 5.648 760.671 5.819 A 52.089 52.089 0 0 1 761 5.9 A 4.23 4.23 0 0 1 762.82 8.852 A 6.577 6.577 0 0 1 762.9 9.9 Q 762.9 12.4 761.1 14.5 Q 760.778 14.822 759.416 15.599 A 52.383 52.383 0 0 1 758.7 16 Z" vector-effect="non-scaling-stroke"/></g></svg>